<?xml version="1.0" encoding="UTF-8"?>
<svg version="1.1" xmlns="http://www.w3.org/2000/svg" width="500" height="500">
<path d="M0 0 C1.69165039 1.77246094 1.69165039 1.77246094 3.34765625 4.234375 C3.95287109 5.11867187 4.55808594 6.00296875 5.18164062 6.9140625 C5.80232422 7.84992188 6.42300781 8.78578125 7.0625 9.75 C8.3031307 11.57829787 9.54400733 13.40642889 10.78515625 15.234375 C11.33051025 16.05131836 11.87586426 16.86826172 12.43774414 17.70996094 C13.95234589 20.02196715 13.95234589 20.02196715 15.76342773 22.04785156 C17 24 17 24 16.90234375 26.07421875 C15.79649356 28.43432327 14.6945966 29.32389332 12.5625 30.8125 C11.84102783 31.32441895 11.11955566 31.83633789 10.3762207 32.36376953 C9.19999146 33.17370361 9.19999146 33.17370361 8 34 C7.19199951 34.56960449 6.38399902 35.13920898 5.55151367 35.72607422 C3.04091203 37.49363551 0.52076884 39.24698053 -2 41 C-4.19739055 42.54416326 -6.39189989 44.09233364 -8.58569336 45.64160156 C-9.98227259 46.62726951 -11.38021544 47.61100831 -12.77954102 48.59277344 C-16.32708541 51.08634027 -19.84588686 53.61115836 -23.328125 56.1953125 C-24.01946533 56.70819824 -24.71080566 57.22108398 -25.4230957 57.74951172 C-26.73741282 58.72851947 -28.04860971 59.71173425 -29.35620117 60.69970703 C-33.78251247 64 -33.78251247 64 -36 64 C-36 64.66 -36 65.32 -36 66 C-41.41176471 70 -41.41176471 70 -44 70 C-44 70.66 -44 71.32 -44 72 C-46.07197086 73.6640793 -48.12814531 75.18561107 -50.3125 76.6875 C-50.90740234 77.11611328 -51.50230469 77.54472656 -52.11523438 77.98632812 C-53.68711701 79.07698635 -55.34078424 80.04744898 -57 81 C-57.99 80.67 -58.98 80.34 -60 80 C-58.96672175 71.5392746 -57.74461328 63.16674076 -56.10620117 54.80200195 C-55.10354349 49.67372697 -54.31083893 44.53498149 -53.625 39.35546875 C-52.92136479 36.70364354 -52.17683406 35.63806763 -50 34 C-49.34 34 -48.68 34 -48 34 C-48 33.34 -48 32.68 -48 32 C-46.61401367 30.79833984 -46.61401367 30.79833984 -44.66796875 29.4609375 C-43.95721191 28.9669043 -43.24645508 28.47287109 -42.51416016 27.96386719 C-41.7463623 27.43954102 -40.97856445 26.91521484 -40.1875 26.375 C-38.61547464 25.28444606 -37.04385988 24.19330001 -35.47265625 23.1015625 C-34.70324707 22.56950195 -33.93383789 22.03744141 -33.14111328 21.48925781 C-30.44237528 19.61214244 -27.77921125 17.68946732 -25.125 15.75 C-24.28324219 15.13640625 -23.44148438 14.5228125 -22.57421875 13.890625 C-20.69692434 12.51185338 -18.82528482 11.12537252 -16.95703125 9.734375 C-15.96058594 8.99703125 -14.96414063 8.2596875 -13.9375 7.5 C-12.58978516 6.49453125 -12.58978516 6.49453125 -11.21484375 5.46875 C-9 4 -9 4 -7 4 C-7 3.34 -7 2.68 -7 2 C-4 0 -4 0 0 0 Z " fill="#F2BA56" transform="translate(326,160)"/>
<path d="M0 0 C3 1 3 1 3.89331055 2.77099609 C4.15926025 3.55555176 4.42520996 4.34010742 4.69921875 5.1484375 C6.37733988 9.64314783 8.4134637 13.83289499 10.70703125 18.0390625 C11.03887421 18.65497253 11.37071716 19.27088257 11.71261597 19.90545654 C13.09137671 22.46262306 14.47418965 25.01682582 15.88647461 27.55566406 C16.92888969 29.43636158 17.94453527 31.32962931 18.95703125 33.2265625 C19.56522705 34.33596191 20.17342285 35.44536133 20.80004883 36.58837891 C23.26273076 43.59011184 20.46817895 50.32749527 18.19921875 57.07421875 C17.78274834 58.34275444 17.78274834 58.34275444 17.35786438 59.63691711 C16.47460226 62.32276571 15.5814423 65.0051895 14.6875 67.6875 C13.80867866 70.34574698 12.93194037 73.00467148 12.05593872 75.66384888 C11.48896866 77.38309728 10.92020835 79.10175642 10.34957886 80.8197937 C8.37938283 86.7691689 6.54966134 92.744022 4.83520508 98.77270508 C4 101 4 101 2 102 C-0.10556116 101.46952052 -2.18614079 100.83880795 -4.25 100.1640625 C-5.4978125 99.75929688 -6.745625 99.35453125 -8.03125 98.9375 C-9.35417282 98.50001859 -10.67708941 98.06251838 -12 97.625 C-13.32270692 97.19466727 -14.64562135 96.76497179 -15.96875 96.3359375 C-25.6469494 93.1765253 -25.6469494 93.1765253 -28 92 C-23.68439932 73.374776 -17.50253749 55.29097694 -11.40258789 37.19335938 C-9.92241355 32.79973055 -8.45771555 28.40112512 -7 24 C-6.7540509 23.26273682 -6.50810181 22.52547363 -6.25469971 21.76586914 C-5.5364097 19.60215479 -4.8309115 17.43467015 -4.12890625 15.265625 C-3.91330551 14.62123474 -3.69770477 13.97684448 -3.47557068 13.31292725 C-2.22620835 9.39701258 -1.98769606 6.07894134 -2 2 C-1.34 1.34 -0.68 0.68 0 0 Z " fill="#EB822B" transform="translate(244,272)"/>
<path d="M0 0 C-1.98022751 3.5467165 -4.07231498 6.30333135 -6.9765625 9.13671875 C-7.729375 9.87857422 -8.4821875 10.62042969 -9.2578125 11.38476562 C-10.42957031 12.52461914 -10.42957031 12.52461914 -11.625 13.6875 C-13.18186188 15.21001933 -14.73665831 16.73465449 -16.2890625 18.26171875 C-16.97693848 18.93162842 -17.66481445 19.60153809 -18.37353516 20.29174805 C-20.08117484 21.91828941 -20.08117484 21.91828941 -21 24 C-21.66 24 -22.32 24 -23 24 C-23.226875 24.556875 -23.45375 25.11375 -23.6875 25.6875 C-25.42510578 28.7489959 -27.31086525 30.71877294 -30 33 C-33.02423096 33.60800171 -33.02423096 33.60800171 -36.42675781 33.58349609 C-37.70448059 33.58634613 -38.98220337 33.58919617 -40.29864502 33.59213257 C-41.68348281 33.56991756 -43.06830953 33.54700276 -44.453125 33.5234375 C-45.87847073 33.51664467 -47.30382772 33.51192453 -48.72918701 33.50918579 C-51.70846406 33.49852978 -54.68698645 33.47188485 -57.66601562 33.43212891 C-61.49180178 33.38107758 -65.31715603 33.35608572 -69.14323807 33.34119225 C-72.78826062 33.32643667 -76.433181 33.30120081 -80.078125 33.2734375 C-80.77654762 33.26852673 -81.47497025 33.26361595 -82.19455719 33.25855637 C-84.16003335 33.24234746 -86.12543573 33.21782523 -88.09082031 33.19287109 C-89.2104718 33.18001068 -90.33012329 33.16715027 -91.48370361 33.15390015 C-94 33 -94 33 -95 32 C-95.08790975 29.70848583 -95.10694038 27.41427476 -95.09765625 25.12109375 C-95.0962413 24.4344313 -95.09482635 23.74776886 -95.09336853 23.04029846 C-95.08775479 20.83932199 -95.07520007 18.63844591 -95.0625 16.4375 C-95.05748676 14.94856917 -95.05292355 13.45963676 -95.04882812 11.97070312 C-95.03778093 8.31376925 -95.02050713 4.65689442 -95 1 C-92.45079148 -0.27460426 -90.68678074 -0.11333466 -87.83300781 -0.09765625 C-86.20524666 -0.09275429 -86.20524666 -0.09275429 -84.54460144 -0.0877533 C-83.35941422 -0.07941971 -82.17422699 -0.07108612 -80.953125 -0.0625 C-78.42260769 -0.05403777 -75.8920901 -0.04565879 -73.36157227 -0.03735352 C-72.02116809 -0.03130124 -70.68076483 -0.0250424 -69.34036255 -0.01858521 C-40.67520911 0.12837733 -40.67520911 0.12837733 -12.02636719 -0.73242188 C-10.98770508 -0.78076172 -9.94904297 -0.82910156 -8.87890625 -0.87890625 C-7.58835327 -0.94960327 -7.58835327 -0.94960327 -6.27172852 -1.02172852 C-4.01138098 -1.00010886 -2.15833982 -0.64628957 0 0 Z " fill="#67AF45" transform="translate(230,254)"/>
<path d="M0 0 C1.32 0.33 2.64 0.66 4 1 C4 1.66 4 2.32 4 3 C5.65 3.66 7.3 4.32 9 5 C9 5.66 9 6.32 9 7 C9.64582031 7.19980469 10.29164063 7.39960938 10.95703125 7.60546875 C15.30740471 9.59915723 18.88096914 12.43539001 22.6875 15.3125 C24.38617403 16.58015734 26.08540696 17.84706605 27.78515625 19.11328125 C28.64898926 19.75861816 29.51282227 20.40395508 30.40283203 21.06884766 C34.45236143 24.07991905 38.53506199 27.04415533 42.625 30 C43.33358154 30.51473877 44.04216309 31.02947754 44.7722168 31.55981445 C49.20080644 34.76023353 53.70444926 37.78630774 58.32568359 40.703125 C58.87820801 41.13109375 59.43073242 41.5590625 60 42 C60 42.66 60 43.32 60 44 C61.65 44.66 63.3 45.32 65 46 C65 46.66 65 47.32 65 48 C65.886875 48.2475 66.77375 48.495 67.6875 48.75 C71.10427135 50.03934768 73.2797748 51.59980129 76 54 C75.67 54.99 75.34 55.98 75 57 C69.69902834 57.86048295 64.39711072 58.71478604 59.09423828 59.56347656 C57.29188429 59.85281118 55.4897962 60.14380741 53.68798828 60.43652344 C51.09215999 60.85793344 48.49542167 61.27328057 45.8984375 61.6875 C45.0982016 61.81874268 44.2979657 61.94998535 43.47348022 62.08520508 C32.44280212 63.8279292 32.44280212 63.8279292 27.984375 61.26953125 C26.89570164 60.46459529 25.8181539 59.64447285 24.75 58.8125 C23.51332082 57.88892109 22.27632583 56.96576495 21.0390625 56.04296875 C20.05921387 55.30119385 20.05921387 55.30119385 19.05957031 54.54443359 C16.20426467 52.40329283 13.30183198 50.33065015 10.39916992 48.25439453 C7.35378811 46.07244304 4.32382382 43.869605 1.29443359 41.66552734 C-0.24937418 40.54487863 -1.79598263 39.4280791 -3.34521484 38.31494141 C-5.59186884 36.69925856 -7.8281219 35.07010045 -10.0625 33.4375 C-10.74747559 32.94910645 -11.43245117 32.46071289 -12.13818359 31.95751953 C-16.78272447 28.53239479 -16.78272447 28.53239479 -17.79858398 26.04321289 C-18.14090161 22.57065988 -16.07685474 20.6109031 -14 18 C-13.34 18 -12.68 18 -12 18 C-11.71125 17.236875 -11.4225 16.47375 -11.125 15.6875 C-10 13 -10 13 -8 10 C-7.34 10 -6.68 10 -6 10 C-5.62875 8.9171875 -5.62875 8.9171875 -5.25 7.8125 C-3.89016326 4.75286734 -2.17082246 2.5326262 0 0 Z " fill="#205891" transform="translate(157,187)"/>
<path d="M0 0 C6.401008 0.46818801 12.20657938 2.08936506 18.3125 4 C19.20517578 4.27328125 20.09785156 4.5465625 21.01757812 4.828125 C24.35692019 5.85329548 27.68601387 6.89533796 31 8 C30.42110471 12.71083019 29.50423121 17.04709561 28.07421875 21.5703125 C27.68943359 22.7975 27.30464844 24.0246875 26.90820312 25.2890625 C26.50147694 26.56776397 26.09457535 27.84640965 25.6875 29.125 C24.89960809 31.62756277 24.11184684 34.13016668 23.32421875 36.6328125 C22.93540527 37.8590332 22.5465918 39.08525391 22.14599609 40.34863281 C21.03491444 43.88875577 19.9631171 47.43905056 18.89453125 50.9921875 C17.89390677 54.26684579 16.85946466 57.32535394 15.5 60.47265625 C13.16249287 65.96945035 11.64832325 71.70245048 10 77.4375 C7.8972235 84.73002377 5.79910617 91.94100413 3 99 C2.34 99 1.68 99 1 99 C0.21847515 97.51056085 -0.56269555 96.02093588 -1.34375 94.53125 C-1.84511475 93.57516846 -2.34647949 92.61908691 -2.86303711 91.6340332 C-3.96009893 89.53366295 -5.05201164 87.43059566 -6.13891602 85.32495117 C-8.57366098 80.6096413 -11.01328364 75.91886107 -13.68359375 71.33203125 C-19.8377013 60.54670565 -19.8377013 60.54670565 -18.3125 53.9375 C-17.58814756 51.94085324 -16.81457182 49.96157015 -16 48 C-15.23911348 45.71192487 -14.48990101 43.41994719 -13.75 41.125 C-13.11191406 39.25134766 -13.11191406 39.25134766 -12.4609375 37.33984375 C-10.69750346 32.14423089 -9.03676589 26.91634749 -7.375 21.6875 C-7.08592773 20.78080566 -6.79685547 19.87411133 -6.49902344 18.93994141 C-4.8079603 13.61532528 -3.18261145 8.27771026 -1.63525391 2.90942383 C-1 1 -1 1 0 0 Z " fill="#EC8229" transform="translate(254,135)"/>
<path d="M0 0 C2.16874252 0.50603992 3.99967627 0.99983813 6 2 C6 2.66 6 3.32 6 4 C7.14855469 4.31324219 7.14855469 4.31324219 8.3203125 4.6328125 C13.46017072 6.54252628 18.09447218 9.20635194 22.875 11.875 C24.78832061 12.93623451 26.70237127 13.99615397 28.6171875 15.0546875 C29.98810547 15.82474121 29.98810547 15.82474121 31.38671875 16.61035156 C33.7209193 17.85159498 36.05129353 18.84721301 38.4921875 19.8515625 C41.49187373 21.35025924 42.64235602 22.60371394 43.890625 25.71875 C44.37372484 27.30367141 44.82448272 28.89865795 45.25 30.5 C45.8055809 32.36288037 46.36445294 34.22478089 46.92578125 36.0859375 C47.23854004 37.15038086 47.55129883 38.21482422 47.87353516 39.31152344 C49.20349313 43.66631431 50.64417083 47.97691039 52.10546875 52.2890625 C52.37873993 53.09684143 52.65201111 53.90462036 52.93356323 54.73687744 C54.04502927 58.01960503 55.15814517 61.30177176 56.27185059 64.58374023 C57.05944634 66.91110746 57.8409589 69.24043551 58.62109375 71.5703125 C58.86135788 72.27572174 59.10162201 72.98113098 59.34916687 73.70791626 C60.31452382 76.60253718 61 78.92560549 61 82 C54.01169908 84.76939413 46.99671061 87.40834454 39.875 89.8125 C38.63492188 90.23144531 37.39484375 90.65039062 36.1171875 91.08203125 C33 92 33 92 30 92 C23.05020072 71.88505255 16.18572398 51.75036706 9.69213867 31.48291016 C9.48304367 30.83036255 9.27394867 30.17781494 9.05851746 29.50549316 C8.4487736 27.60160735 7.83961565 25.69753393 7.23046875 23.79345703 C6.37235417 21.14794425 5.50301775 18.50928031 4.61328125 15.87451172 C4.38519775 15.19831284 4.15711426 14.52211395 3.92211914 13.82542419 C3.28957331 11.95675157 2.65274147 10.08953133 2.015625 8.22241211 C1.15101382 5.47914217 0.49072458 2.83000068 0 0 Z " fill="#9A62A2" transform="translate(257,272)"/>
<path d="M0 0 C2.5338619 1.73237083 4.93504859 3.42574551 7.19140625 5.5078125 C7.19140625 6.1678125 7.19140625 6.8278125 7.19140625 7.5078125 C7.93003906 7.77207031 8.66867187 8.03632813 9.4296875 8.30859375 C12.17890341 9.5023834 14.07115955 10.80321999 16.37890625 12.6953125 C24.38961913 19.19633019 24.38961913 19.19633019 33.19140625 24.5078125 C33.19140625 25.1678125 33.19140625 25.8278125 33.19140625 26.5078125 C33.72765625 26.7553125 34.26390625 27.0028125 34.81640625 27.2578125 C42.57602163 31.3418206 42.57602163 31.3418206 44.37890625 34.7578125 C44.0898218 38.99771774 41.90193231 42.2855647 39.19140625 45.5078125 C38.53140625 45.5078125 37.87140625 45.5078125 37.19140625 45.5078125 C36.20140625 48.4778125 36.20140625 48.4778125 35.19140625 51.5078125 C34.53140625 51.5078125 33.87140625 51.5078125 33.19140625 51.5078125 C32.92328125 52.2503125 32.65515625 52.9928125 32.37890625 53.7578125 C31.24911204 56.37417804 29.98247423 58.30968361 28.19140625 60.5078125 C23.5260886 60.00579316 20.52222083 57.88641986 16.87890625 55.1328125 C15.65231849 54.22743429 14.42439653 53.32386152 13.1953125 52.421875 C12.22875732 51.7107959 12.22875732 51.7107959 11.24267578 50.98535156 C9.09431574 49.43787775 6.91496636 47.94743767 4.71875 46.46875 C3.98503174 45.9742334 3.25131348 45.4797168 2.49536133 44.97021484 C1.05697485 44.00484397 -0.38454673 43.044126 -1.8293457 42.08837891 C-3.52384224 40.9447249 -5.17160467 39.73236537 -6.80859375 38.5078125 C-6.80859375 37.8478125 -6.80859375 37.1878125 -6.80859375 36.5078125 C-7.47632813 36.29769531 -8.1440625 36.08757812 -8.83203125 35.87109375 C-12.84574862 34.03279012 -15.99194626 31.43353134 -19.43359375 28.6953125 C-26.66078409 23.02446463 -34.10385633 17.79856828 -41.82666016 12.82299805 C-42.59413574 12.31551025 -43.36161133 11.80802246 -44.15234375 11.28515625 C-44.83490234 10.84421631 -45.51746094 10.40327637 -46.22070312 9.94897461 C-48.12362821 8.2218887 -48.43637772 7.01190251 -48.80859375 4.5078125 C-47.3405127 4.28847046 -47.3405127 4.28847046 -45.84277344 4.06469727 C-42.20461876 3.52060304 -38.56685353 2.97394238 -34.92919922 2.42651367 C-33.35606184 2.19013803 -31.78282031 1.95445442 -30.20947266 1.71948242 C-27.94535903 1.38122413 -25.68163412 1.0404623 -23.41796875 0.69921875 C-22.71677917 0.59501114 -22.0155896 0.49080353 -21.29315186 0.38343811 C-4.16225733 -2.21138011 -4.16225733 -2.21138011 0 0 Z " fill="#215891" transform="translate(317.80859375,260.4921875)"/>
<path d="M0 0 C1.09089331 2.88528885 2.0678377 5.75013621 3 8.6875 C3.62179901 10.60305842 4.24423311 12.51841076 4.8671875 14.43359375 C5.20588867 15.48144043 5.54458984 16.52928711 5.89355469 17.60888672 C7.07742062 21.2372843 8.28840487 24.85609818 9.5078125 28.47265625 C13.48750193 40.28756944 17.43177708 52.09052003 20.83984375 64.0859375 C22.41079535 69.51898726 24.26557321 74.86303331 26.12207031 80.20410156 C27.16778155 83.25581486 28 85.74954633 28 89 C23.43545749 88.45660208 20.0271824 87.20536179 16 85 C16 84.34 16 83.68 16 83 C14.68 83 13.36 83 12 83 C12 82.34 12 81.68 12 81 C11.431604 80.87399414 10.86320801 80.74798828 10.27758789 80.61816406 C6.13246056 79.4931279 2.32480695 77.55221733 -1.5625 75.75 C-2.42552734 75.36714844 -3.28855469 74.98429687 -4.17773438 74.58984375 C-12.05691049 70.92881243 -12.05691049 70.92881243 -14 66 C-15.22128798 62.6102718 -16.31650757 59.19378594 -17.375 55.75 C-17.68099121 54.77289063 -17.98698242 53.79578125 -18.30224609 52.7890625 C-20.35598212 46.19645151 -22.31844428 39.57945609 -24.21289062 32.93945312 C-25.88863941 27.14999326 -27.96257416 21.55565094 -30.1796875 15.953125 C-31.05229207 12.81174854 -30.92633591 11.08778636 -30 8 C-29.28714844 7.81824219 -28.57429687 7.63648438 -27.83984375 7.44921875 C-22.31905584 6.00029056 -17.23846068 4.28587375 -12 2 C-2.53763441 -1.2688172 -2.53763441 -1.2688172 0 0 Z " fill="#9A64A2" transform="translate(215,145)"/>
<path d="M0 0 C-0.4339316 7.06261086 -1.47399768 13.9244171 -2.84082031 20.85864258 C-3.9531289 26.55482626 -4.76177275 32.25017726 -5.47265625 38.01171875 C-6.34264601 42.94166074 -7.22165471 45.63242724 -11.28125 48.65625 C-12.67939317 49.61608371 -14.08626531 50.5632827 -15.5 51.5 C-17.03742462 52.5480631 -18.57384846 53.59759547 -20.109375 54.6484375 C-20.90923828 55.19209961 -21.70910156 55.73576172 -22.53320312 56.29589844 C-27.44292964 59.68761371 -32.2296924 63.25481474 -37.02148438 66.81054688 C-40.56558842 69.40183094 -43.76614348 71.64983316 -48 73 C-48 73.66 -48 74.32 -48 75 C-49.609375 76.2890625 -49.609375 76.2890625 -51.75 77.625 C-52.44609375 78.07101562 -53.1421875 78.51703125 -53.859375 78.9765625 C-56 80 -56 80 -60 80 C-61.59985352 78.33520508 -61.59985352 78.33520508 -63.12890625 76.01953125 C-63.68900391 75.18486328 -64.24910156 74.35019531 -64.82617188 73.49023438 C-65.6856543 72.16475586 -65.6856543 72.16475586 -66.5625 70.8125 C-67.13935547 69.94818359 -67.71621094 69.08386719 -68.31054688 68.19335938 C-75.98151149 56.64709775 -75.98151149 56.64709775 -76.0625 53.8125 C-75 52 -75 52 -71.9375 50.75 C-70.968125 50.5025 -69.99875 50.255 -69 50 C-69 49.34 -69 48.68 -69 48 C-67.1015625 46.4921875 -67.1015625 46.4921875 -64.625 44.875 C-63.81289062 44.33617187 -63.00078125 43.79734375 -62.1640625 43.2421875 C-60 42 -60 42 -58 42 C-58 41.34 -58 40.68 -58 40 C-53.61538462 37 -53.61538462 37 -51 37 C-51 36.34 -51 35.68 -51 35 C-48.875 33.484375 -48.875 33.484375 -46 31.75 C-41.6447385 29.06940679 -37.55753553 26.25059482 -33.55859375 23.06640625 C-32 22 -32 22 -30 22 C-30 21.34 -30 20.68 -30 20 C-28.56298828 18.76318359 -28.56298828 18.76318359 -26.5703125 17.3984375 C-25.85746094 16.90859375 -25.14460938 16.41875 -24.41015625 15.9140625 C-23.65605469 15.40617187 -22.90195313 14.89828125 -22.125 14.375 C-21.37863281 13.859375 -20.63226563 13.34375 -19.86328125 12.8125 C-14.265563 9 -14.265563 9 -12 9 C-12 8.34 -12 7.68 -12 7 C-6.58823529 3 -6.58823529 3 -4 3 C-4 2.34 -4 1.68 -4 1 C-2 0 -2 0 0 0 Z " fill="#F2B954" transform="translate(235,267)"/>
<path d="M0 0 C1.44441229 0.01681803 2.88887645 0.02961411 4.33335876 0.03858948 C8.10767167 0.07270769 11.87879146 0.16088041 15.65185547 0.26092529 C20.193479 0.36986386 24.7361797 0.41062282 29.27873993 0.46300507 C36.15548488 0.5498419 43.02524615 0.722389 49.90234375 0.87890625 C49.90234375 11.43890625 49.90234375 21.99890625 49.90234375 32.87890625 C18.88234375 32.87890625 -12.13765625 32.87890625 -44.09765625 32.87890625 C-43.43765625 31.55890625 -42.77765625 30.23890625 -42.09765625 28.87890625 C-41.43765625 28.87890625 -40.77765625 28.87890625 -40.09765625 28.87890625 C-40.09765625 28.21890625 -40.09765625 27.55890625 -40.09765625 26.87890625 C-39.43765625 26.87890625 -38.77765625 26.87890625 -38.09765625 26.87890625 C-37.69546875 26.01265625 -37.69546875 26.01265625 -37.28515625 25.12890625 C-36.06836436 22.82340582 -34.79431746 20.85834433 -33.09765625 18.87890625 C-32.43765625 18.87890625 -31.77765625 18.87890625 -31.09765625 18.87890625 C-31.09765625 18.21890625 -31.09765625 17.55890625 -31.09765625 16.87890625 C-29.72265625 15.25390625 -29.72265625 15.25390625 -28.09765625 13.87890625 C-27.43765625 13.87890625 -26.77765625 13.87890625 -26.09765625 13.87890625 C-25.71654945 13.03415993 -25.71654945 13.03415993 -25.32774353 12.17234802 C-19.37148002 1.06716568 -11.84409299 -0.4082064 0 0 Z " fill="#67AE45" transform="translate(316.09765625,221.12109375)"/>
<path d="M0 0 C1.30112228 0.00022659 2.60224457 0.00045319 3.9427948 0.00068665 C5.36331526 0.01600665 6.78383221 0.03165464 8.2043457 0.04760742 C9.65736961 0.05320342 11.11039919 0.0574735 12.56343079 0.06047058 C16.38583025 0.07191922 20.20788715 0.10138618 24.03015137 0.13458252 C28.61728079 0.17068195 33.20452483 0.18444451 37.79175568 0.20194244 C44.75895094 0.23102396 51.72539474 0.28850995 58.69262695 0.34057617 C58.69262695 10.90057617 58.69262695 21.46057617 58.69262695 32.34057617 C27.67262695 32.34057617 -3.34737305 32.34057617 -35.30737305 32.34057617 C-34.64737305 31.02057617 -33.98737305 29.70057617 -33.30737305 28.34057617 C-32.64737305 28.34057617 -31.98737305 28.34057617 -31.30737305 28.34057617 C-31.30737305 27.68057617 -31.30737305 27.02057617 -31.30737305 26.34057617 C-30.64737305 26.34057617 -29.98737305 26.34057617 -29.30737305 26.34057617 C-30.29737305 28.81557617 -30.29737305 28.81557617 -31.30737305 31.34057617 C-1.93737305 31.34057617 27.43262695 31.34057617 57.69262695 31.34057617 C57.36262695 21.77057617 57.03262695 12.20057617 56.69262695 2.34057617 C36.23262695 2.01057617 15.77262695 1.68057617 -5.30737305 1.34057617 C-5.63737305 2.33057617 -5.96737305 3.32057617 -6.30737305 4.34057617 C-7.29737305 4.01057617 -8.28737305 3.68057617 -9.30737305 3.34057617 C-6.64604569 -0.21827758 -4.27646556 -0.02481508 0 0 Z " fill="#7BAC63" transform="translate(307.307373046875,221.659423828125)"/>
<path d="M0 0 C-2.31883213 4.50884026 -5.06451569 6.93906776 -9 10 C-9.495 7.03 -9.495 7.03 -10 4 C-10.66 4 -11.32 4 -12 4 C-12 3.34 -12 2.68 -12 2 C-36.09 2 -60.18 2 -85 2 C-84.67 1.34 -84.34 0.68 -84 0 C-83.16032181 0.00333092 -83.16032181 0.00333092 -82.30368042 0.00672913 C-75.16079951 0.03373528 -68.01792193 0.05085797 -60.875 0.0625 C-59.73818787 0.06444366 -58.60137573 0.06638733 -57.43011475 0.06838989 C-42.43189996 0.08631986 -27.46723941 -0.03394586 -12.48388672 -0.73217773 C-11.39865723 -0.78059814 -10.31342773 -0.82901855 -9.1953125 -0.87890625 C-7.81883545 -0.94960327 -7.81883545 -0.94960327 -6.41455078 -1.02172852 C-4.09258472 -1.00083317 -2.21387874 -0.67074525 0 0 Z " fill="#8DBE79" transform="translate(230,254)"/>
<path d="M0 0 C-0.33 0.66 -0.66 1.32 -1 2 C-2.98 2 -4.96 2 -7 2 C-7 11.57 -7 21.14 -7 31 C-4.009375 30.979375 -1.01875 30.95875 2.0625 30.9375 C19.71277513 30.88225025 37.35879009 31.4963099 55 32 C55 30.68 55 29.36 55 28 C55.99 28 56.98 28 58 28 C58.0825 27.38125 58.165 26.7625 58.25 26.125 C59 24 59 24 61.0625 22.75 C61.701875 22.5025 62.34125 22.255 63 22 C63.99 22.99 63.99 22.99 65 24 C64.34 24 63.68 24 63 24 C62.773125 24.556875 62.54625 25.11375 62.3125 25.6875 C60.57489422 28.7489959 58.68913475 30.71877294 56 33 C52.97576904 33.60800171 52.97576904 33.60800171 49.57324219 33.58349609 C48.29551941 33.58634613 47.01779663 33.58919617 45.70135498 33.59213257 C44.31651719 33.56991756 42.93169047 33.54700276 41.546875 33.5234375 C40.12152927 33.51664467 38.69617228 33.51192453 37.27081299 33.50918579 C34.29153594 33.49852978 31.31301355 33.47188485 28.33398438 33.43212891 C24.50819822 33.38107758 20.68284397 33.35608572 16.85676193 33.34119225 C13.21173938 33.32643667 9.566819 33.30120081 5.921875 33.2734375 C5.22345238 33.26852673 4.52502975 33.26361595 3.80544281 33.25855637 C1.83996665 33.24234746 -0.12543573 33.21782523 -2.09082031 33.19287109 C-3.2104718 33.18001068 -4.33012329 33.16715027 -5.48370361 33.15390015 C-8 33 -8 33 -9 32 C-9.08790975 29.70848583 -9.10694038 27.41427476 -9.09765625 25.12109375 C-9.0962413 24.4344313 -9.09482635 23.74776886 -9.09336853 23.04029846 C-9.08775479 20.83932199 -9.07520007 18.63844591 -9.0625 16.4375 C-9.05748676 14.94856917 -9.05292355 13.45963676 -9.04882812 11.97070312 C-9.03778093 8.31376925 -9.02050713 4.65689442 -9 1 C-6.04335481 -0.4783226 -3.25770263 -0.06032783 0 0 Z " fill="#94BA81" transform="translate(144,254)"/>
<path d="M0 0 C-0.4339316 7.06261086 -1.47399768 13.9244171 -2.84082031 20.85864258 C-3.9531289 26.55482626 -4.76177275 32.25017726 -5.47265625 38.01171875 C-5.99257633 40.95793254 -6.61802843 43.34604075 -8 46 C-9.485 46.495 -9.485 46.495 -11 47 C-10.67 46.01 -10.34 45.02 -10 44 C-9.34 44 -8.68 44 -8 44 C-8.01160156 42.92878906 -8.02320313 41.85757813 -8.03515625 40.75390625 C-8.04453299 39.35677257 -8.05363331 37.95963701 -8.0625 36.5625 C-8.07087891 35.85544922 -8.07925781 35.14839844 -8.08789062 34.41992188 C-8.09653588 32.61306441 -8.05220011 30.80612397 -8 29 C-7.67 28.67 -7.34 28.34 -7 28 C-6.63239269 25.67182036 -6.29758419 23.3381615 -6 21 C-5.34 21 -4.68 21 -4 21 C-4 16.38 -4 11.76 -4 7 C-9.06008639 8.47639003 -9.06008639 8.47639003 -11 12 C-12.83984375 12.80859375 -12.83984375 12.80859375 -14.9375 13.4375 C-18.55429458 14.67772938 -19.82006821 15.82919013 -22 19 C-23.99145391 20.01691264 -25.99187074 21.01642648 -28 22 C-29.051875 23.11375 -29.051875 23.11375 -30.125 24.25 C-30.74375 24.8275 -31.3625 25.405 -32 26 C-34.25 25.75 -34.25 25.75 -36 25 C-32.25 22 -32.25 22 -30 22 C-30 21.34 -30 20.68 -30 20 C-28.56298828 18.76318359 -28.56298828 18.76318359 -26.5703125 17.3984375 C-25.85746094 16.90859375 -25.14460937 16.41875 -24.41015625 15.9140625 C-23.27900391 15.15222656 -23.27900391 15.15222656 -22.125 14.375 C-21.37863281 13.859375 -20.63226563 13.34375 -19.86328125 12.8125 C-14.265563 9 -14.265563 9 -12 9 C-12 8.34 -12 7.68 -12 7 C-6.58823529 3 -6.58823529 3 -4 3 C-4 2.34 -4 1.68 -4 1 C-2 0 -2 0 0 0 Z " fill="#EEC67E" transform="translate(235,267)"/>
<path d="M0 0 C1.32 0.33 2.64 0.66 4 1 C4 1.66 4 2.32 4 3 C6.475 3.99 6.475 3.99 9 5 C9 5.66 9 6.32 9 7 C10.32 7.33 11.64 7.66 13 8 C12.67 8.99 12.34 9.98 12 11 C10.02 11 8.04 11 6 11 C6.33 10.34 6.66 9.68 7 9 C3.92053155 9.50467258 3.92053155 9.50467258 1.75 11.625 C0 13 0 13 -1.96484375 12.97265625 C-3.98595585 12.71335716 -5.99466639 12.36161754 -8 12 C-8 11.34 -8 10.68 -8 10 C-7.34 10 -6.68 10 -6 10 C-5.7525 9.278125 -5.505 8.55625 -5.25 7.8125 C-3.89016326 4.75286734 -2.17082246 2.5326262 0 0 Z " fill="#326398" transform="translate(157,187)"/>
<path d="M0 0 C1.15249514 3.92474186 0.65394709 6.50596276 -0.3125 10.5 C-0.57675781 11.6240625 -0.84101563 12.748125 -1.11328125 13.90625 C-1.86427718 16.52646488 -2.73856661 18.60991567 -4 21 C-4.69730806 23.3243602 -5.36912152 25.65673706 -6 28 C-6.66 28 -7.32 28 -8 28 C-8.33 32.62 -8.66 37.24 -9 42 C-9.66 42 -10.32 42 -11 42 C-11.2165625 43.11375 -11.2165625 43.11375 -11.4375 44.25 C-12 47 -12 47 -12.625 49.1875 C-13.21346359 51.08903493 -13.21346359 51.08903493 -12 53 C-13.32 52.67 -14.64 52.34 -16 52 C-11.89629259 34.28926274 -6.14571502 17.09163349 0 0 Z " fill="#EAB17E" transform="translate(232,312)"/>
<path d="M0 0 C0.33 0 0.66 0 1 0 C1.26131581 7.44750067 -0.17331623 13.08163875 -3.125 19.9375 C-5.03671586 24.56102022 -5.36780091 28.03468765 -5 33 C-5.66 33 -6.32 33 -7 33 C-6.7525 33.5775 -6.505 34.155 -6.25 34.75 C-6.1675 35.4925 -6.085 36.235 -6 37 C-7.8125 39.25 -7.8125 39.25 -10 41 C-10.66 41 -11.32 41 -12 41 C-10.0024655 32.52908005 -7.58483534 24.26847193 -4.875 16 C-4.16296616 13.81285662 -3.45198279 11.62537089 -2.7421875 9.4375 C-2.4313623 8.48746094 -2.12053711 7.53742188 -1.80029297 6.55859375 C-1.11974698 4.38283964 -0.52255202 2.21807349 0 0 Z " fill="#E69855" transform="translate(251,142)"/>
<path d="M0 0 C0 0.66 0 1.32 0 2 C-0.61875 2.0825 -1.2375 2.165 -1.875 2.25 C-4.15354435 2.79278299 -4.15354435 2.79278299 -5.0625 4.875 C-5.371875 5.57625 -5.68125 6.2775 -6 7 C-6.804375 7.680625 -6.804375 7.680625 -7.625 8.375 C-9.22129716 9.99147316 -9.22129716 9.99147316 -9.5 12.625 C-8.79346921 17.3940828 -6.52156037 20.94749225 -4 25 C-4.66 25.33 -5.32 25.66 -6 26 C-7.53663484 23.75944862 -9.05400704 21.50937727 -10.5625 19.25 C-11.00013672 18.61578125 -11.43777344 17.9815625 -11.88867188 17.328125 C-15.04929632 12.54985812 -15.04929632 12.54985812 -14.80834961 9.86230469 C-14 8 -14 8 -10.9375 6.75 C-9.968125 6.5025 -8.99875 6.255 -8 6 C-8 5.34 -8 4.68 -8 4 C-2.58823529 0 -2.58823529 0 0 0 Z " fill="#EFCF94" transform="translate(174,311)"/>
<path d="M0 0 C0.66 0.33 1.32 0.66 2 1 C0 4 0 4 -2.6875 5.1875 C-6.56649968 7.30997152 -8.53843371 9.78413622 -11.19140625 13.2578125 C-13.39978877 15.3851097 -14.99862857 15.66138374 -18 16 C-17.938125 17.5159375 -17.938125 17.5159375 -17.875 19.0625 C-18.00573843 23.18076052 -18.73250786 26.11830533 -20 30 C-21.16331764 26.51004709 -20.83340388 24.60649674 -20.25 21 C-20.09015625 19.948125 -19.9303125 18.89625 -19.765625 17.8125 C-18.97683966 14.91492121 -18.4027343 13.74744313 -16 12 C-15.34 12 -14.68 12 -14 12 C-14 11.34 -14 10.68 -14 10 C-11.69833213 8.20916148 -9.39761099 6.52740758 -7 4.875 C-6.33226562 4.40707031 -5.66453125 3.93914062 -4.9765625 3.45703125 C-3.32185734 2.29873764 -1.66144693 1.14860235 0 0 Z " fill="#EECC87" transform="translate(292,182)"/>
<path d="M0 0 C0.33 1.32 0.66 2.64 1 4 C0.38125 4.268125 -0.2375 4.53625 -0.875 4.8125 C-3.2995233 5.95556848 -3.2995233 5.95556848 -5 9 C-4.34 9.66 -3.68 10.32 -3 11 C-4.3921875 11.3403125 -4.3921875 11.3403125 -5.8125 11.6875 C-9.54469713 13.22428705 -10.1724155 14.52758945 -12 18 C-12.66 18 -13.32 18 -14 18 C-14 18.66 -14 19.32 -14 20 C-15.65 20.33 -17.3 20.66 -19 21 C-18.21654285 19.82780457 -17.42297164 18.66236332 -16.625 17.5 C-16.18414062 16.8503125 -15.74328125 16.200625 -15.2890625 15.53125 C-14.65097656 14.77328125 -14.65097656 14.77328125 -14 14 C-13.34 14 -12.68 14 -12 14 C-12 13.34 -12 12.68 -12 12 C-10.625 10.375 -10.625 10.375 -9 9 C-8.34 9 -7.68 9 -7 9 C-6.773125 8.443125 -6.54625 7.88625 -6.3125 7.3125 C-4.64103234 4.36753316 -2.44723648 2.31843456 0 0 Z " fill="#91BF79" transform="translate(297,226)"/>
<path d="M0 0 C3 1 3 1 3.94921875 2.7421875 C4.31466797 3.79792969 4.31466797 3.79792969 4.6875 4.875 C5.06455078 5.92300781 5.06455078 5.92300781 5.44921875 6.9921875 C6 9 6 9 6 12 C0.25 11.125 0.25 11.125 -2 10 C-2 9.34 -2 8.68 -2 8 C-2.99 7.34 -3.98 6.68 -5 6 C-4.01 5.67 -3.02 5.34 -2 5 C-0.78130071 2.49552484 -0.78130071 2.49552484 0 0 Z " fill="#96689E" transform="translate(237,222)"/>
<path d="M0 0 C1.43793392 0.31049726 2.8753318 0.6234776 4.3125 0.9375 C5.11300781 1.11152344 5.91351563 1.28554687 6.73828125 1.46484375 C9 2 9 2 12 3 C11.38334864 8.39392739 10.12077204 13.28395283 8.4375 18.4375 C8.20353516 19.16904297 7.96957031 19.90058594 7.72851562 20.65429688 C7.15732778 22.43780179 6.57936877 24.21913583 6 26 C4.69629811 21.76755936 5.7480912 19.24257983 7 15 C7.31200137 13.42426199 7.58243586 11.83976905 7.8125 10.25 C7.92207031 9.51265625 8.03164063 8.7753125 8.14453125 8.015625 C8.1790094 5.90650385 8.1790094 5.90650385 6.6796875 4.27734375 C4.52967189 2.64233188 2.64722847 2.35773358 0 2 C0 1.34 0 0.68 0 0 Z " fill="#DF914D" transform="translate(273,140)"/>
<path d="M0 0 C2.49361571 1.20381448 4.68143083 2.45428722 7 4 C6.67 4.99 6.34 5.98 6 7 C-0.435 7.495 -0.435 7.495 -7 8 C-6.34 6.68 -5.68 5.36 -5 4 C-4.34 4.33 -3.68 4.66 -3 5 C-2.690625 4.360625 -2.38125 3.72125 -2.0625 3.0625 C-1 1 -1 1 0 0 Z " fill="#326096" transform="translate(226,237)"/>
<path d="M0 0 C0.66 0.33 1.32 0.66 2 1 C1.154375 1.9075 0.30875 2.815 -0.5625 3.75 C-2.73261875 6.18952952 -2.73261875 6.18952952 -2.8125 9.375 C-2.544375 9.91125 -2.27625 10.4475 -2 11 C-3.19625 10.95875 -4.3925 10.9175 -5.625 10.875 C-9.42329953 10.86148292 -12.44975618 11.57990247 -16 13 C-15.67 12.34 -15.34 11.68 -15 11 C-14.34 11 -13.68 11 -13 11 C-13 10.34 -13 9.68 -13 9 C-8.61538462 6 -8.61538462 6 -6 6 C-6 5.34 -6 4.68 -6 4 C-4.03852126 2.61061923 -2.03833424 1.2739589 0 0 Z " fill="#EFC474" transform="translate(190,298)"/>
<path d="M0 0 C2.16874252 0.50603992 3.99967627 0.99983813 6 2 C6 2.66 6 3.32 6 4 C6.886875 4.2475 7.77375 4.495 8.6875 4.75 C12.10427135 6.03934768 14.2797748 7.59980129 17 10 C15.02 10 13.04 10 11 10 C10.67 10.66 10.34 11.32 10 12 C9.38125 11.01 8.7625 10.02 8.125 9 C7.42375 8.01 6.7225 7.02 6 6 C5.34 6 4.68 6 4 6 C3.34 6.66 2.68 7.32 2 8 C0.23537317 4.91190305 0 3.76687864 0 0 Z " fill="#B088B6" transform="translate(257,272)"/>
<path d="M0 0 C2.0625 0.4375 2.0625 0.4375 4 1 C4 1.66 4 2.32 4 3 C6.475 3.99 6.475 3.99 9 5 C9 5.66 9 6.32 9 7 C10.32 7.33 11.64 7.66 13 8 C12.67 8.99 12.34 9.98 12 11 C10.02 11 8.04 11 6 11 C6 10.01 6 9.02 6 8 C3.81327138 5.65057354 3.81327138 5.65057354 1 4 C-1.26424351 4.12563582 -1.26424351 4.12563582 -3 5 C-1.125 1.125 -1.125 1.125 0 0 Z " fill="#446C97" transform="translate(157,187)"/>
<path d="M0 0 C-0.33 0.99 -0.66 1.98 -1 3 C-2.98 3.33 -4.96 3.66 -7 4 C-7.33 6.97 -7.66 9.94 -8 13 C-8.66 13 -9.32 13 -10 13 C-11.62950412 8.87831311 -12.26264601 6.29299643 -11 2 C-7.12315913 0.80712589 -4.08378077 0 0 0 Z " fill="#9D74A2" transform="translate(196,151)"/>
<path d="M0 0 C6.57594056 0.48710671 12.68625945 2.15462363 19 4 C19 4.33 19 4.66 19 5 C17.02 5.33 15.04 5.66 13 6 C13 5.34 13 4.68 13 4 C10.68690295 4.11341637 8.37449815 4.24103807 6.0625 4.375 C4.77472656 4.44460937 3.48695313 4.51421875 2.16015625 4.5859375 C1.11730469 4.72257813 0.07445312 4.85921875 -1 5 C-1.33 5.66 -1.66 6.32 -2 7 C-1.125 1.125 -1.125 1.125 0 0 Z " fill="#E7A265" transform="translate(254,135)"/>
<path d="M0 0 C-1.91135386 3.53600465 -3.62642766 5.78972846 -7 8 C-7 6.68 -7 5.36 -7 4 C-6.01 4 -5.02 4 -4 4 C-4 3.34 -4 2.68 -4 2 C-18.85 1.505 -18.85 1.505 -34 1 C-34 0.67 -34 0.34 -34 0 C-29.80103014 -0.168035 -25.60185961 -0.32854866 -21.40234375 -0.48217773 C-19.97453122 -0.53546157 -18.54679306 -0.59077975 -17.11914062 -0.64819336 C-15.06396518 -0.73048625 -13.00863107 -0.80539678 -10.953125 -0.87890625 C-9.71723633 -0.9260376 -8.48134766 -0.97316895 -7.20800781 -1.02172852 C-4.54105481 -1.00366468 -2.51376586 -0.8150529 0 0 Z " fill="#B6DCA8" transform="translate(230,254)"/>
<path d="M0 0 C1.32 0.33 2.64 0.66 4 1 C4 1.99 4 2.98 4 4 C4.66 4 5.32 4 6 4 C6.33 5.32 6.66 6.64 7 8 C10.00384054 7.3045656 10.00384054 7.3045656 13 6 C13.96877057 3.96756452 13.96877057 3.96756452 14 2 C15.32 2.33 16.64 2.66 18 3 C18 3.66 18 4.32 18 5 C16.390625 6.2890625 16.390625 6.2890625 14.25 7.625 C13.55390625 8.07101562 12.8578125 8.51703125 12.140625 8.9765625 C10 10 10 10 6 10 C4.296875 8.06640625 4.296875 8.06640625 2.75 5.5625 C2.22921875 4.73878906 1.7084375 3.91507812 1.171875 3.06640625 C0 1 0 1 0 0 Z " fill="#E8C284" transform="translate(169,337)"/>
<path d="M0 0 C0.66 0.33 1.32 0.66 2 1 C-1.11930042 3.34103185 -4.2463447 5.6714893 -7.375 8 C-8.26445312 8.66773438 -9.15390625 9.33546875 -10.0703125 10.0234375 C-10.92109375 10.65507812 -11.771875 11.28671875 -12.6484375 11.9375 C-13.43395996 12.52402344 -14.21948242 13.11054688 -15.02880859 13.71484375 C-17 15 -17 15 -19 15 C-18.67 13.35 -18.34 11.7 -18 10 C-14.535 9.505 -14.535 9.505 -11 9 C-11 8.01 -11 7.02 -11 6 C-10.01 6 -9.02 6 -8 6 C-8 5.34 -8 4.68 -8 4 C-7.236875 3.71125 -6.47375 3.4225 -5.6875 3.125 C-2.84970692 2.03730987 -2.84970692 2.03730987 0 0 Z " fill="#E8C47B" transform="translate(212,321)"/>
<path d="M0 0 C4.23258016 1.49060432 5.34602734 3.94204638 7.25 7.875 C7.77078125 8.92429688 8.2915625 9.97359375 8.828125 11.0546875 C10 14 10 14 10 18 C10.66 18 11.32 18 12 18 C12.33 19.98 12.66 21.96 13 24 C9.64897463 22.32448731 8.6441095 18.63108415 7.0625 15.375 C6.71509766 14.67503906 6.36769531 13.97507813 6.00976562 13.25390625 C3.86090967 8.89144538 1.8778177 4.4855708 0 0 Z " fill="#E29C66" transform="translate(239,202)"/>
<path d="M0 0 C0.33 0.66 0.66 1.32 1 2 C0.34 2 -0.32 2 -1 2 C-1 3.32 -1 4.64 -1 6 C-1.99 6.33 -2.98 6.66 -4 7 C-4.5775 7.66 -5.155 8.32 -5.75 9 C-8.715282 11.63580622 -11.11820531 11.70140041 -15 12 C-10.58990583 7.14889642 -5.41995647 3.651893 0 0 Z " fill="#F3C477" transform="translate(309,170)"/>
<path d="M0 0 C1.26026798 2.52053595 0.91874445 3.8542098 0.5625 6.625 C0.46066406 7.44226563 0.35882813 8.25953125 0.25390625 9.1015625 C0.17011719 9.72804688 0.08632812 10.35453125 0 11 C-0.66 11 -1.32 11 -2 11 C-2.2165625 12.11375 -2.2165625 12.11375 -2.4375 13.25 C-3 16 -3 16 -3.625 18.1875 C-4.21346359 20.08903493 -4.21346359 20.08903493 -3 22 C-4.32 21.67 -5.64 21.34 -7 21 C-5.34886481 13.60741743 -3.37964731 6.79360575 0 0 Z " fill="#E29D60" transform="translate(223,343)"/>
<path d="M0 0 C0.33 0 0.66 0 1 0 C1.3066651 8.7399554 -0.77533023 16.3097808 -5 24 C-5.66 24.33 -6.32 24.66 -7 25 C-5.32234985 16.45923559 -2.65997819 8.27435964 0 0 Z " fill="#E7A369" transform="translate(251,142)"/>
<path d="M0 0 C0.99 0.33 1.98 0.66 3 1 C3.73046875 2.84765625 3.73046875 2.84765625 4.1875 5.0625 C4.34605469 5.79597656 4.50460938 6.52945312 4.66796875 7.28515625 C4.83232422 8.13400391 4.83232422 8.13400391 5 9 C4.34 9 3.68 9 3 9 C3 8.34 3 7.68 3 7 C2.34 7 1.68 7 1 7 C1 7.99 1 8.98 1 10 C0.34 10 -0.32 10 -1 10 C-1 11.32 -1 12.64 -1 14 C-1.66 14 -2.32 14 -3 14 C-2.88617347 12.04098546 -2.75858875 10.0827662 -2.625 8.125 C-2.55539063 7.03445313 -2.48578125 5.94390625 -2.4140625 4.8203125 C-2 2 -2 2 0 0 Z " fill="#E2A164" transform="translate(244,272)"/>
<path d="M0 0 C1 2 1 2 0.59448242 3.75244141 C0.35060791 4.44515137 0.1067334 5.13786133 -0.14453125 5.8515625 C-0.54188477 7.00591797 -0.54188477 7.00591797 -0.94726562 8.18359375 C-1.23279297 8.98925781 -1.51832031 9.79492188 -1.8125 10.625 C-3.82606504 16.37668932 -5.60768998 22.0640051 -7 28 C-8.18719263 23.63496852 -7.67009018 20.46726786 -7 16 C-6.34 16 -5.68 16 -5 16 C-4.9175 15.21625 -4.835 14.4325 -4.75 13.625 C-3.75634931 8.822355 -1.91286482 4.50190511 0 0 Z " fill="#E2A772" transform="translate(256,342)"/>
<path d="M0 0 C0.40729228 2.32156597 0.74438677 4.6568787 1 7 C-2.875 5.125 -2.875 5.125 -4 4 C-6.32817964 3.63239269 -8.6618385 3.29758419 -11 3 C-11 3.66 -11 4.32 -11 5 C-11.99 4.67 -12.98 4.34 -14 4 C-11.68516093 1.68516093 -10.10977477 1.2391044 -7 0.3125 C-6.113125 0.04050781 -5.22625 -0.23148438 -4.3125 -0.51171875 C-2 -1 -2 -1 0 0 Z " fill="#A684AC" transform="translate(215,145)"/>
<path d="M0 0 C2.64 0.66 5.28 1.32 8 2 C8 1.34 8 0.68 8 0 C9.65 0.33 11.3 0.66 13 1 C13 1.66 13 2.32 13 3 C14.98 3 16.96 3 19 3 C19 3.33 19 3.66 19 4 C6.10276082 5.76045401 6.10276082 5.76045401 2.1875 3.125 C1.465625 2.42375 0.74375 1.7225 0 1 C0 0.67 0 0.34 0 0 Z " fill="#4C739C" transform="translate(182,245)"/>
<path d="M0 0 C2.0625 1.75 2.0625 1.75 4 4 C3.96875 5.875 3.96875 5.875 3 8 C0.49609375 10.140625 0.49609375 10.140625 -2.5625 12.25 C-3.57441406 12.95640625 -4.58632813 13.6628125 -5.62890625 14.390625 C-6.41136719 14.92171875 -7.19382812 15.4528125 -8 16 C-8.66 15.67 -9.32 15.34 -10 15 C-8.6875 13 -8.6875 13 -7 11 C-6.01 11 -5.02 11 -4 11 C-4 10.34 -4 9.68 -4 9 C-2.35 8.67 -0.7 8.34 1 8 C0.67 5.36 0.34 2.72 0 0 Z " fill="#E9C381" transform="translate(339,180)"/>
<path d="M0 0 C-5.61 3.96 -11.22 7.92 -17 12 C-17.33 11.34 -17.66 10.68 -18 10 C-16.71034824 8.62437146 -15.37310707 7.29233607 -14 6 C-13.34 6 -12.68 6 -12 6 C-12 5.34 -12 4.68 -12 4 C-10.68 4 -9.36 4 -8 4 C-8 3.01 -8 2.02 -8 1 C-2.25 -1.125 -2.25 -1.125 0 0 Z " fill="#E7C17C" transform="translate(328,198)"/>
<path d="M0 0 C0.99 0 1.98 0 3 0 C2.88601335 1.62580966 2.75844341 3.25067157 2.625 4.875 C2.55539063 5.77992188 2.48578125 6.68484375 2.4140625 7.6171875 C2 10 2 10 0 12 C-0.99 12 -1.98 12 -3 12 C-2.01 8.04 -1.02 4.08 0 0 Z " fill="#E48434" transform="translate(240,286)"/>
<path d="M0 0 C-0.11429397 1.77155654 -0.24183037 3.54226229 -0.375 5.3125 C-0.44460937 6.29863281 -0.51421875 7.28476562 -0.5859375 8.30078125 C-1 11 -1 11 -3 14 C-3 11.03 -3 8.06 -3 5 C-4.98 5.33 -6.96 5.66 -9 6 C-7.625 4.5 -7.625 4.5 -6 3 C-5.34 3 -4.68 3 -4 3 C-4 2.34 -4 1.68 -4 1 C-2 0 -2 0 0 0 Z " fill="#E5CD9B" transform="translate(235,267)"/>
<path d="M0 0 C1.9375 0.5 1.9375 0.5 4 2 C4.64408886 4.67074779 4.78153131 7.2472945 5 10 C5.33 10.33 5.66 10.66 6 11 C6.04092937 13.33297433 6.04241723 15.66705225 6 18 C4.36798362 14.89034717 3.08562641 11.73309413 1.875 8.4375 C1.34519531 7.01244141 1.34519531 7.01244141 0.8046875 5.55859375 C0 3 0 3 0 0 Z " fill="#AD8BB3" transform="translate(278,335)"/>
<path d="M0 0 C0.33 0 0.66 0 1 0 C1.054348 2.0622048 1.09294961 4.12482816 1.125 6.1875 C1.14820313 7.33605469 1.17140625 8.48460937 1.1953125 9.66796875 C1.00221395 12.96222999 0.58998636 15.12012405 -1 18 C-1.99 18.33 -2.98 18.66 -4 19 C-3.505 17.515 -3.505 17.515 -3 16 C-2.34 16 -1.68 16 -1 16 C-1.01160156 14.92878906 -1.02320313 13.85757812 -1.03515625 12.75390625 C-1.04453299 11.35677257 -1.05363331 9.95963701 -1.0625 8.5625 C-1.07506836 7.50192383 -1.07506836 7.50192383 -1.08789062 6.41992188 C-1.09653588 4.61306441 -1.05220011 2.80612397 -1 1 C-0.67 0.67 -0.34 0.34 0 0 Z " fill="#ECBF77" transform="translate(228,295)"/>
<path d="M0 0 C1.32 0.66 2.64 1.32 4 2 C3.34 2 2.68 2 2 2 C1.7525 2.5775 1.505 3.155 1.25 3.75 C-0.18299988 6.32939979 -1.78424676 8.06121592 -4 10 C-4.66 10 -5.32 10 -6 10 C-6 8.68 -6 7.36 -6 6 C-5.01 6 -4.02 6 -3 6 C-2.87625 5.38125 -2.7525 4.7625 -2.625 4.125 C-2 2 -2 2 0 0 Z " fill="#8CBA74" transform="translate(205,276)"/>
<path d="M0 0 C1.23384786 3.70154358 0.58331422 4.74651527 -0.8125 8.3125 C-1.18503906 9.28445312 -1.55757813 10.25640625 -1.94140625 11.2578125 C-2.29074219 12.16273438 -2.64007813 13.06765625 -3 14 C-3.67681023 15.99659018 -4.34961499 17.99464622 -5 20 C-6.20701596 16.37895212 -5.68182935 14.78836831 -4.75 11.125 C-4.49734375 10.09632813 -4.2446875 9.06765625 -3.984375 8.0078125 C-3.00057177 5.00174709 -1.73103388 2.63545045 0 0 Z " fill="#E4AD7D" transform="translate(275,173)"/>
<path d="M0 0 C1.41077471 3.8346561 0.60999698 6.78328293 -0.3125 10.6875 C-0.57675781 11.84636719 -0.84101563 13.00523437 -1.11328125 14.19921875 C-1.40589844 15.12347656 -1.69851562 16.04773438 -2 17 C-2.66 17.33 -3.32 17.66 -4 18 C-3.61020794 11.44074057 -2.57886807 6.05473373 0 0 Z " fill="#E7A86C" transform="translate(232,312)"/>
<path d="M0 0 C0.99 0 1.98 0 3 0 C3.09796875 0.56847656 3.1959375 1.13695312 3.296875 1.72265625 C4.36323919 7.22914031 5.98284249 11.2731199 9 16 C8.34 16.33 7.68 16.66 7 17 C3.08580266 11.51713579 1.03312362 6.6613344 0 0 Z " fill="#ECC27A" transform="translate(161,320)"/>
<path d="M0 0 C1.65 0 3.3 0 5 0 C4.01 0.495 4.01 0.495 3 1 C3 1.66 3 2.32 3 3 C1.21601386 4.28006797 -0.62853906 5.47660351 -2.5 6.625 C-4.03140625 7.57246094 -4.03140625 7.57246094 -5.59375 8.5390625 C-6.3878125 9.02117187 -7.181875 9.50328125 -8 10 C-8 8.68 -8 7.36 -8 6 C-5 4 -5 4 -2 4 C-2 3.34 -2 2.68 -2 2 C-1.34 2 -0.68 2 0 2 C0 1.34 0 0.68 0 0 Z " fill="#EBC785" transform="translate(279,229)"/>
<path d="M0 0 C1.65 0.33 3.3 0.66 5 1 C3.37660195 2.70884005 1.70680947 4.37446717 0 6 C-0.66 6 -1.32 6 -2 6 C-2 6.66 -2 7.32 -2 8 C-3.98 8.99 -5.96 9.98 -8 11 C-8 9.68 -8 8.36 -8 7 C-6.68 7 -5.36 7 -4 7 C-4 6.34 -4 5.68 -4 5 C-2.68 4.34 -1.36 3.68 0 3 C0 2.01 0 1.02 0 0 Z " fill="#E8C580" transform="translate(292,218)"/>
<path d="M0 0 C0.66 0 1.32 0 2 0 C2 1.32 2 2.64 2 4 C1.34 4 0.68 4 0 4 C-0.20970559 8.14093698 -0.20970559 8.14093698 1 12 C-1.38691438 11.07603314 -2.71023043 10.50709674 -4 8.25 C-4 4.6839237 -2.15910176 2.71429936 0 0 Z " fill="#6585A9" transform="translate(143,205)"/>
<path d="M0 0 C1.75 2 1.75 2 3 4 C2.67 4.66 2.34 5.32 2 6 C1.34 5.34 0.68 4.68 0 4 C-3.08347826 3.83318891 -3.08347826 3.83318891 -6 4 C-6 4.66 -6 5.32 -6 6 C-7.32 5.67 -8.64 5.34 -10 5 C-9.01 4.67 -8.02 4.34 -7 4 C-7 3.34 -7 2.68 -7 2 C-4 0 -4 0 0 0 Z " fill="#F1D39A" transform="translate(326,160)"/>
<path d="M0 0 C1.32 0.66 2.64 1.32 4 2 C3.67 2.99 3.34 3.98 3 5 C-3.435 5.495 -3.435 5.495 -10 6 C-9.34 4.68 -8.68 3.36 -8 2 C-7.67 2.33 -7.34 2.66 -7 3 C-5.65252916 3.23075082 -4.29622435 3.41153063 -2.9375 3.5625 C-1.638125 3.706875 -0.33875 3.85125 1 4 C0.67 2.68 0.34 1.36 0 0 Z " fill="#5F7CA2" transform="translate(229,239)"/>
<path d="M0 0 C3.63559661 3.43361902 6.36113346 6.7973607 9 11 C8.67 11.66 8.34 12.32 8 13 C6.2925002 11.71937515 4.62626404 10.38232443 3 9 C3 8.34 3 7.68 3 7 C2.34 6.67 1.68 6.34 1 6 C0.375 2.9375 0.375 2.9375 0 0 Z " fill="#F1CC87" transform="translate(329,166)"/>
<path d="M0 0 C-1.485 2.475 -1.485 2.475 -3 5 C-6.68754757 4.50168276 -8.60490662 3.89932357 -11 1 C-7.26562152 0.12132271 -3.83225427 -0.08912219 0 0 Z " fill="#4B6F9D" transform="translate(349,316)"/>
<path d="M0 0 C2.64 0 5.28 0 8 0 C8 0.66 8 1.32 8 2 C7.01 2 6.02 2 5 2 C5 3.65 5 5.3 5 7 C4.01 7.495 4.01 7.495 3 8 C2.67 6.02 2.34 4.04 2 2 C1.34 2 0.68 2 0 2 C0 1.34 0 0.68 0 0 Z " fill="#73B555" transform="translate(218,256)"/>
<path d="M0 0 C1.21065165 3.63195496 0.62784815 5.06531629 -0.4375 8.6875 C-0.86869141 10.17830078 -0.86869141 10.17830078 -1.30859375 11.69921875 C-1.53675781 12.45847656 -1.76492188 13.21773437 -2 14 C-2.33 14 -2.66 14 -3 14 C-3.33 10.04 -3.66 6.08 -4 2 C-2.68 2 -1.36 2 0 2 C0 1.34 0 0.68 0 0 Z " fill="#E69F64" transform="translate(264,206)"/>
<path d="M0 0 C0.66 0 1.32 0 2 0 C2 0.99 2 1.98 2 3 C2.99 3 3.98 3 5 3 C5 2.01 5 1.02 5 0 C5.66 0 6.32 0 7 0 C6.34 2.64 5.68 5.28 5 8 C4.34 8 3.68 8 3 8 C0.95830515 5.09451118 0 3.59857954 0 0 Z " fill="#E1A97E" transform="translate(252,226)"/>
<path d="M0 0 C-1.1427919 1.16964602 -2.28931715 2.33564556 -3.4375 3.5 C-4.07558594 4.1496875 -4.71367187 4.799375 -5.37109375 5.46875 C-7 7 -7 7 -8 7 C-8.25 4.6875 -8.25 4.6875 -8 2 C-5.17904206 -1.02245494 -3.81217262 -1.16927984 0 0 Z " fill="#85BA6B" transform="translate(221,265)"/>
<path d="M0 0 C2.0625 0.4375 2.0625 0.4375 4 1 C4.33 2.98 4.66 4.96 5 7 C4.13375 6.2265625 4.13375 6.2265625 3.25 5.4375 C1.12172477 3.73494807 1.12172477 3.73494807 -1.25 4.3125 C-1.8275 4.539375 -2.405 4.76625 -3 5 C-1.125 1.125 -1.125 1.125 0 0 Z " fill="#5D80A3" transform="translate(157,187)"/>
<path d="M0 0 C1.32 0.33 2.64 0.66 4 1 C4 2.65 4 4.3 4 6 C2.02 6 0.04 6 -2 6 C-2 5.01 -2 4.02 -2 3 C-1.34 3 -0.68 3 0 3 C0 2.01 0 1.02 0 0 Z " fill="#1B5389" transform="translate(356,292)"/>
<path d="M0 0 C-1.32 1.65 -2.64 3.3 -4 5 C-6.97 4.505 -6.97 4.505 -10 4 C-7.16124653 -0.25813021 -4.8137938 -0.13010254 0 0 Z " fill="#72B456" transform="translate(213,272)"/>
<path d="M0 0 C0.99 0 1.98 0 3 0 C2.67 1.98 2.34 3.96 2 6 C1.01 6 0.02 6 -1 6 C-1 6.99 -1 7.98 -1 9 C-1.99 9 -2.98 9 -4 9 C-3.625 7.0625 -3.625 7.0625 -3 5 C-2.34 4.67 -1.68 4.34 -1 4 C-0.34786708 1.97536745 -0.34786708 1.97536745 0 0 Z " fill="#E4944C" transform="translate(258,220)"/>
<path d="M0 0 C1.98 0.495 1.98 0.495 4 1 C3.34 4.3 2.68 7.6 2 11 C0.19308322 7.38616645 -0.56157766 4.94580104 -1 1 C-0.67 0.67 -0.34 0.34 0 0 Z " fill="#BA96BD" transform="translate(185,153)"/>
<path d="M0 0 C-0.99 3.96 -1.98 7.92 -3 12 C-3.33 12 -3.66 12 -4 12 C-4 8.37 -4 4.74 -4 1 C-2 0 -2 0 0 0 Z " fill="#E59F6B" transform="translate(261,330)"/>
<path d="M0 0 C0.66 0 1.32 0 2 0 C2 0.66 2 1.32 2 2 C2.99 2 3.98 2 5 2 C5.33 3.32 5.66 4.64 6 6 C3.36 5.67 0.72 5.34 -2 5 C-2 4.34 -2 3.68 -2 3 C-1.34 3 -0.68 3 0 3 C0 2.01 0 1.02 0 0 Z " fill="#E79249" transform="translate(245,279)"/>
<path d="M0 0 C1.03125 0.165 2.0625 0.33 3.125 0.5 C6.48244326 0.93321848 9.62336157 1.08235703 13 1 C5.28571429 5 5.28571429 5 1 5 C0.67 3.35 0.34 1.7 0 0 Z " fill="#A788AF" transform="translate(286,359)"/>
<path d="M0 0 C1.64826111 2.96687001 2.44271087 5.65626525 3 9 C1.02 9.33 -0.96 9.66 -3 10 C-2.690625 9.46375 -2.38125 8.9275 -2.0625 8.375 C-0.82172561 5.6015043 -0.4090325 2.99957163 0 0 Z " fill="#B093B6" transform="translate(315,345)"/>
<path d="M0 0 C0.66 0.33 1.32 0.66 2 1 C1.52496041 5.98791571 0.0298864 9.0232741 -3 13 C-3.33 13 -3.66 13 -4 13 C-4.1875 10.6875 -4.1875 10.6875 -4 8 C-3.02149805 6.97895449 -2.02019573 5.9793879 -1 5 C-0.27802838 2.39388923 -0.27802838 2.39388923 0 0 Z " fill="#6481A6" transform="translate(360,293)"/>
<path d="M0 0 C1.98 0.99 1.98 0.99 4 2 C4 5.3 4 8.6 4 12 C1.94116077 7.88232154 1.03834872 4.45006595 0 0 Z " fill="#AF8DB7" transform="translate(263,290)"/>
<path d="M0 0 C0.99 0 1.98 0 3 0 C2.34 5.28 1.68 10.56 1 16 C0.67 16 0.34 16 0 16 C0 10.72 0 5.44 0 0 Z " fill="#EFCD93" transform="translate(229,288)"/>
<path d="M0 0 C0 2 0 2 -1.390625 3.54296875 C-2.00421875 4.08566406 -2.6178125 4.62835938 -3.25 5.1875 C-3.85328125 5.73792969 -4.4565625 6.28835938 -5.078125 6.85546875 C-7 8 -7 8 -9.234375 7.67578125 C-9.81703125 7.45277344 -10.3996875 7.22976563 -11 7 C-7.25 4 -7.25 4 -5 4 C-5 3.34 -5 2.68 -5 2 C-2 0 -2 0 0 0 Z " fill="#F3CF95" transform="translate(210,285)"/>
<path d="M0 0 C2.16874252 0.50603992 3.99967627 0.99983813 6 2 C6 2.66 6 3.32 6 4 C4.66666667 5.33333333 3.33333333 6.66666667 2 8 C0.23537317 4.91190305 0 3.76687864 0 0 Z " fill="#C4B6C8" transform="translate(257,272)"/>
<path d="M0 0 C0.66 0.33 1.32 0.66 2 1 C1.01 2.485 1.01 2.485 0 4 C-0.66 4 -1.32 4 -2 4 C-2 4.66 -2 5.32 -2 6 C-3.98 6.33 -5.96 6.66 -8 7 C-5.42215154 4.35247996 -3.08351902 2.05567935 0 0 Z " fill="#F3CD8F" transform="translate(302,175)"/>
<path d="M0 0 C0 0.33 0 0.66 0 1 C-1.04800781 1.30744141 -1.04800781 1.30744141 -2.1171875 1.62109375 C-3.02726562 1.89050781 -3.93734375 2.15992188 -4.875 2.4375 C-5.77992188 2.70433594 -6.68484375 2.97117187 -7.6171875 3.24609375 C-9.98275381 3.92613826 -9.98275381 3.92613826 -12 5 C-12.33 3.68 -12.66 2.36 -13 1 C-8.59085217 -0.10228696 -4.51617599 -0.07654536 0 0 Z " fill="#7E97B4" transform="translate(282,264)"/>
<path d="M0 0 C1.32 0.33 2.64 0.66 4 1 C2.08864614 4.53600465 0.37357234 6.78972846 -3 9 C-3 7.68 -3 6.36 -3 5 C-2.01 5 -1.02 5 0 5 C0 3.35 0 1.7 0 0 Z " fill="#A8C596" transform="translate(226,253)"/>
<path d="M0 0 C0.66 0 1.32 0 2 0 C4 3 4 3 4 7 C4.66 7 5.32 7 6 7 C6.33 8.98 6.66 10.96 7 13 C4.21287908 11.60643954 3.73536671 9.83494327 2.375 7.0625 C1.92898437 6.16660156 1.48296875 5.27070313 1.0234375 4.34765625 C0 2 0 2 0 0 Z " fill="#E7A777" transform="translate(245,213)"/>
<path d="M0 0 C0.66 0 1.32 0 2 0 C3.42258812 3.82320557 4.24042276 6.91281305 4 11 C1.73030256 8.73030256 1.00868171 7.02604513 0 4 C0 2.68 0 1.36 0 0 Z " fill="#9F79A5" transform="translate(311,337)"/>
<path d="M0 0 C0.33 0 0.66 0 1 0 C1 2.97 1 5.94 1 9 C0.34 9 -0.32 9 -1 9 C-1.66 10.32 -2.32 11.64 -3 13 C-2.343621 8.51474352 -1.29925791 4.33085971 0 0 Z " fill="#E8A66D" transform="translate(236,299)"/>
<path d="M0 0 C0.33 0 0.66 0 1 0 C1.18451025 9.41002278 1.18451025 9.41002278 0 14 C0.66 14.33 1.32 14.66 2 15 C0.68 15 -0.64 15 -2 15 C-1.34 10.05 -0.68 5.1 0 0 Z " fill="#EDD8A3" transform="translate(268,225)"/>
<path d="M0 0 C1.32 0 2.64 0 4 0 C4 0.66 4 1.32 4 2 C4.928125 2.12375 4.928125 2.12375 5.875 2.25 C8 3 8 3 9.25 5.0625 C9.4975 5.701875 9.745 6.34125 10 7 C5.56541027 5.6062718 3.12621626 3.39417765 0 0 Z " fill="#5E83A7" transform="translate(163,231)"/>
<path d="M0 0 C1.65 0 3.3 0 5 0 C1.87378374 3.39417765 -0.56541027 5.6062718 -5 7 C-4.34 5.68 -3.68 4.36 -3 3 C-2.01 3 -1.02 3 0 3 C0 2.01 0 1.02 0 0 Z " fill="#E6C485" transform="translate(219,314)"/>
<path d="M0 0 C1.32 0.33 2.64 0.66 4 1 C4 1.66 4 2.32 4 3 C5.98 3 7.96 3 10 3 C9.34 4.32 8.68 5.64 8 7 C5.5 5.625 5.5 5.625 3 4 C3 3.34 3 2.68 3 2 C2.01 1.67 1.02 1.34 0 1 C0 0.67 0 0.34 0 0 Z " fill="#5D81A7" transform="translate(308,295)"/>
<path d="M0 0 C2.0625 1.75 2.0625 1.75 4 4 C4 6.125 4 6.125 3 8 C0.9375 9.25 0.9375 9.25 -1 10 C-1 9.34 -1 8.68 -1 8 C-0.34 8 0.32 8 1 8 C0.67 5.36 0.34 2.72 0 0 Z " fill="#F0CE9F" transform="translate(339,180)"/>
<path d="M0 0 C1.43793392 0.31049726 2.8753318 0.6234776 4.3125 0.9375 C5.11300781 1.11152344 5.91351563 1.28554687 6.73828125 1.46484375 C9 2 9 2 12 3 C11.67 4.32 11.34 5.64 11 7 C11 6.01 11 5.02 11 4 C9.948125 4.061875 9.948125 4.061875 8.875 4.125 C5.61628372 3.98331668 3.0440053 3.13265314 0 2 C0 1.34 0 0.68 0 0 Z " fill="#E9B584" transform="translate(273,140)"/>
<path d="M0 0 C0.33 1.32 0.66 2.64 1 4 C-3.455 5.485 -3.455 5.485 -8 7 C-7.67 6.34 -7.34 5.68 -7 5 C-6.34 5 -5.68 5 -5 5 C-5 4.34 -5 3.68 -5 3 C-2.5 1.375 -2.5 1.375 0 0 Z " fill="#EFCC90" transform="translate(182,304)"/>
<path d="M0 0 C1.33597652 0.80814651 2.668725 1.62163181 4 2.4375 C5.11375 3.11619141 5.11375 3.11619141 6.25 3.80859375 C6.8275 4.20175781 7.405 4.59492188 8 5 C8 5.33 8 5.66 8 6 C6.02 6 4.04 6 2 6 C1.34 4.02 0.68 2.04 0 0 Z " fill="#6283A6" transform="translate(337,276)"/>
<path d="M0 0 C2.3129482 2.3129482 2.49580975 3.47904875 3.125 6.625 C3.29257813 7.44226563 3.46015625 8.25953125 3.6328125 9.1015625 C3.81457031 10.04128906 3.81457031 10.04128906 4 11 C2.68 10.67 1.36 10.34 0 10 C0.33 9.01 0.66 8.02 1 7 C0.72230092 4.6593935 0.39460023 2.32375692 0 0 Z " fill="#B798BB" transform="translate(239,223)"/>
<path d="M0 0 C0.66 0.33 1.32 0.66 2 1 C1.01 4.3 0.02 7.6 -1 11 C-1.33 11 -1.66 11 -2 11 C-2 8.36 -2 5.72 -2 3 C-1.34 3 -0.68 3 0 3 C0 2.01 0 1.02 0 0 Z " fill="#E39A61" transform="translate(267,194)"/>
<path d="M0 0 C0.66 0 1.32 0 2 0 C3.80230168 3.82989106 4.19622241 6.78121808 4 11 C3.34 11 2.68 11 2 11 C1.855625 9.9275 1.71125 8.855 1.5625 7.75 C1.16250558 5.08337051 0.72408076 2.58600271 0 0 Z " fill="#8D5D94" transform="translate(282,342)"/>
<path d="M0 0 C2 1 2 1 2.6328125 2.84765625 C2.79523438 3.57855469 2.95765625 4.30945313 3.125 5.0625 C3.29257812 5.79597656 3.46015625 6.52945312 3.6328125 7.28515625 C3.75398438 7.85105469 3.87515625 8.41695313 4 9 C3.01 8.67 2.02 8.34 1 8 C-0.35439668 5.29120665 -0.06501451 2.99066732 0 0 Z " fill="#9F7DA5" transform="translate(276,326)"/>
<path d="M0 0 C0.33 0 0.66 0 1 0 C1 2.64 1 5.28 1 8 C0.34 8 -0.32 8 -1 8 C-1 9.32 -1 10.64 -1 12 C-1.66 12 -2.32 12 -3 12 C-2.01 8.04 -1.02 4.08 0 0 Z " fill="#E9B17D" transform="translate(240,286)"/>
<path d="M0 0 C0.99 0.33 1.98 0.66 3 1 C2.67 2.32 2.34 3.64 2 5 C1.34 4.67 0.68 4.34 0 4 C-0.33 5.32 -0.66 6.64 -1 8 C-1.625 5.125 -1.625 5.125 -2 2 C-1.34 1.34 -0.68 0.68 0 0 Z " fill="#DEC6B0" transform="translate(244,272)"/>
<path d="M0 0 C2.46800047 1.15173355 4.04783565 2.04783565 6 4 C4.02 4.66 2.04 5.32 0 6 C0 4.02 0 2.04 0 0 Z " fill="#46749D" transform="translate(194,214)"/>
<path d="M0 0 C1.98 0 3.96 0 6 0 C6 0.99 6 1.98 6 3 C6.66 3.33 7.32 3.66 8 4 C4 4 4 4 1.75 2 C1.1725 1.34 0.595 0.68 0 0 Z " fill="#47729D" transform="translate(144,217)"/>
<path d="M0 0 C0.33 0 0.66 0 1 0 C1.49230769 6.4 1.49230769 6.4 -1 9.4375 C-1.99 10.2109375 -1.99 10.2109375 -3 11 C-2.69078116 9.54096742 -2.37751201 8.08279278 -2.0625 6.625 C-1.88847656 5.81289062 -1.71445313 5.00078125 -1.53515625 4.1640625 C-1 2 -1 2 0 0 Z " fill="#EBB489" transform="translate(247,156)"/>
<path d="M0 0 C1.2065625 0.0309375 1.2065625 0.0309375 2.4375 0.0625 C2.4375 0.7225 2.4375 1.3825 2.4375 2.0625 C4.0875 2.0625 5.7375 2.0625 7.4375 2.0625 C7.4375 2.3925 7.4375 2.7225 7.4375 3.0625 C5.4575 3.3925 3.4775 3.7225 1.4375 4.0625 C1.4375 3.4025 1.4375 2.7425 1.4375 2.0625 C0.4475 2.0625 -0.5425 2.0625 -1.5625 2.0625 C-1.8925 2.7225 -2.2225 3.3825 -2.5625 4.0625 C-2.8925 3.0725 -3.2225 2.0825 -3.5625 1.0625 C-2.5625 0.0625 -2.5625 0.0625 0 0 Z " fill="#E78737" transform="translate(270.5625,139.9375)"/>
<path d="M0 0 C0.66 0.33 1.32 0.66 2 1 C1.67 1.66 1.34 2.32 1 3 C0.34 3 -0.32 3 -1 3 C-1 3.66 -1 4.32 -1 5 C-2.65 5.33 -4.3 5.66 -6 6 C-2.25 1.125 -2.25 1.125 0 0 Z " fill="#83B369" transform="translate(284,241)"/>
<path d="M0 0 C0.66 0.33 1.32 0.66 2 1 C-0.33343353 4.50015029 -2.16917814 5.40382422 -6 7 C-6.66 6.67 -7.32 6.34 -8 6 C-5.36 4.02 -2.72 2.04 0 0 Z " fill="#F4DA9B" transform="translate(292,182)"/>
<path d="M0 0 C1.18771723 3.42943519 0.80226223 5.37784675 -0.4375 8.75 C-0.86869141 9.94882813 -0.86869141 9.94882813 -1.30859375 11.171875 C-1.65083984 12.07679688 -1.65083984 12.07679688 -2 13 C-3.47717605 8.2771977 -2.18614967 4.37229933 0 0 Z " fill="#E6A979" transform="translate(281,153)"/>
<path d="M0 0 C0 2.66666667 0 5.33333333 0 8 C-0.66 8 -1.32 8 -2 8 C-2.66 6.02 -3.32 4.04 -4 2 C-1 0 -1 0 0 0 Z " fill="#935D9D" transform="translate(271,299)"/>
<path d="M0 0 C3.465 1.98 3.465 1.98 7 4 C3.37673261 5.2077558 2.35853631 4.54311128 -1 3 C-0.67 2.01 -0.34 1.02 0 0 Z " fill="#5B80A5" transform="translate(315,260)"/>
<path d="M0 0 C3.375 0.6875 3.375 0.6875 7 2 C8.2265625 4.58203125 8.2265625 4.58203125 9 7 C7.4972763 6.02501855 5.99788037 5.04490611 4.5 4.0625 C3.6646875 3.51722656 2.829375 2.97195312 1.96875 2.41015625 C1.3190625 1.94480469 0.669375 1.47945312 0 1 C0 0.67 0 0.34 0 0 Z " fill="#5676A0" transform="translate(173,238)"/>
<path d="M0 0 C0.33 1.32 0.66 2.64 1 4 C-1.375 5.5625 -1.375 5.5625 -4 7 C-4.66 6.67 -5.32 6.34 -6 6 C-4.02 4.02 -2.04 2.04 0 0 Z " fill="#9CC887" transform="translate(297,226)"/>
<path d="M0 0 C0 0.66 0 1.32 0 2 C-0.99 2.33 -1.98 2.66 -3 3 C-3 3.99 -3 4.98 -3 6 C-4.32 5.34 -5.64 4.68 -7 4 C-7 3.34 -7 2.68 -7 2 C-2.25 0 -2.25 0 0 0 Z " fill="#175188" transform="translate(200,218)"/>
<path d="M0 0 C-2.31 1.65 -4.62 3.3 -7 5 C-7.33 3.68 -7.66 2.36 -8 1 C-2.25 -1.125 -2.25 -1.125 0 0 Z " fill="#EBC783" transform="translate(328,198)"/>
<path d="M0 0 C0.99 0 1.98 0 3 0 C3.33 2.31 3.66 4.62 4 7 C3.34 7 2.68 7 2 7 C1.34 4.69 0.68 2.38 0 0 Z " fill="#A377A9" transform="translate(187,165)"/>
<path d="M0 0 C0.66 0 1.32 0 2 0 C1.25 2.4375 1.25 2.4375 0 5 C-2.125 5.8125 -2.125 5.8125 -4 6 C-3.34 4.68 -2.68 3.36 -2 2 C-1.34 2 -0.68 2 0 2 C0 1.34 0 0.68 0 0 Z " fill="#8EB67B" transform="translate(276,248)"/>
<path d="M0 0 C2.31 0.33 4.62 0.66 7 1 C4.23776722 3.76223278 1.79293383 3.57856291 -2 4 C-1.34 3.67 -0.68 3.34 0 3 C0 2.01 0 1.02 0 0 Z " fill="#204F83" transform="translate(201,244)"/>
<path d="M0 0 C0.66 0 1.32 0 2 0 C2 0.66 2 1.32 2 2 C3.32 2.66 4.64 3.32 6 4 C4.68 4 3.36 4 2 4 C1.67 4.66 1.34 5.32 1 6 C0 5 0 5 -0.0625 2.4375 C-0.041875 1.633125 -0.02125 0.82875 0 0 Z " fill="#436A9B" transform="translate(220,233)"/>
<path d="M0 0 C2.475 0.495 2.475 0.495 5 1 C4.34 2.65 3.68 4.3 3 6 C0 2.25 0 2.25 0 0 Z " fill="#1E548C" transform="translate(154,192)"/>
<path d="M0 0 C1 3 1 3 0.25 5.625 C-1 8 -1 8 -4 9 C-2.94124926 5.59687262 -1.99097846 2.98646769 0 0 Z " fill="#E8A46F" transform="translate(275,173)"/>
</svg>
